PIMP 2010 DVDrip H264 PSP

Format                           : MPEG-4
Format profile                   : Base Media / Version 2
Codec ID                         : mp42
File size                        : 282 MiB
Duration                         : 1h 27mn
Overall bit rate                 : 448 Kbps
Encoded date                     : UTC 2010-05-26 14:35:51
Tagged date                      : UTC 2010-05-26 14:36:11
Writing application              : mp4creator 1.6.1d

Video
ID                               : 1
Format                           : AVC
Format/Info                      : Advanced Video Codec
Format profile                   : Baseline@L1.3
Format settings, CABAC           : No
Format settings, ReFrames        : 1 frame
Codec ID                         : avc1
Codec ID/Info                    : Advanced Video Coding
Duration                         : 1h 27mn
Bit rate mode                    : Variable
Bit rate                         : 383 Kbps
Width                            : 480 pixels
Height                           : 272 pixels
Display aspect ratio             : 16:9
Original display aspect ratio    : 16:9
Frame rate mode                  : Constant
Frame rate                       : 24.000 fps
Resolution                       : 24 bits
Colorimetry                      : 4:2:0
Scan type                        : Progressive
Bits/(Pixel*Frame)               : 0.122
Stream size                      : 241 MiB (85%)
Encoded date                     : UTC 2010-05-26 14:35:51
Tagged date                      : UTC 2010-05-26 14:36:10

Audio
ID                               : 2
Format                           : AAC
Format/Info                      : Advanced Audio Codec
Format version                   : Version 4
Format profile                   : LC
Format settings, SBR             : Yes
Format settings, PS              : No
Codec ID                         : 40
Duration                         : 1h 27mn
Bit rate mode                    : Variable
Bit rate                         : 63.8 Kbps
Maximum bit rate                 : 139 Kbps
Channel(s)                       : 2 channels
Channel positions                : L R
Sampling rate                    : 48.0 KHz
Resolution                       : 16 bits
Stream size                      : 40.0 MiB (14%)
Encoded date                     : UTC 2010-05-26 14:36:10
Tagged date                      : UTC 2010-05-26 14:36:11

Working for Stanley (Danny Dyer), Woody (Robert Cavanah) is a pimp, hustler and fixer in Soho's sex industry who agrees to be followed and filmed by a documentary camera crew for one week. However, it soon turns out to be no ordinary week; one of his porn directors is behind schedule, he’s kicked out of his apartment for not paying his rent and he’s beaten up by his landlord and by Chinese thugs who are encroaching onto Stanley’s territory. 
http://www.imdb.com/title/tt1460643/

PLEASE SEED AND ENJOY THANKS

To watch this file on you,re PC then i recomend using VLC media player or MEDIA PLAYER CLASSIC 

To burn to disc then i recomend using CONVERTX 2 DVD click link below
  
http://thepiratebay.org/torrent/5018839/VSO.Convert-X.to.DVD.3.5.3%28vice%29

screen shots    
http://img295.imageshack.us/img295/7166/pimph264vicemp4thumbs20.jpg